<?xml version="1.0" standalone="no"?>
<!DOCTYPE svg PUBLIC "-//W3C//DTD SVG 20010904//EN"
 "http://www.w3.org/TR/2001/REC-SVG-20010904/DTD/svg10.dtd">
<svg version="1.0" xmlns="http://www.w3.org/2000/svg"
 width="600.000000pt" height="600.000000pt" viewBox="0 0 600.000000 600.000000"
 preserveAspectRatio="xMidYMid meet">
<metadata>
Created by potrace 1.11, written by Peter Selinger 2001-2013
</metadata>
<g transform="translate(0.000000,600.000000) scale(0.100000,-0.100000)"
fill="#000000" stroke="none">
<path d="M2937 5963 c-71 -75 -133 -180 -153 -259 -9 -38 -18 -74 -20 -81 -2
-8 -13 -9 -41 -1 -41 10 -135 13 -169 5 -39 -9 -102 -56 -100 -72 1 -9 13 -22
27 -29 13 -8 53 -29 89 -48 93 -49 142 -82 165 -109 29 -34 96 -137 95 -145
-1 -4 2 -10 7 -13 5 -3 17 -26 27 -51 64 -161 71 -243 41 -439 -8 -52 -36
-141 -45 -141 -4 0 -11 -11 -14 -25 -4 -14 -16 -35 -27 -46 -26 -26 -38 -89
-18 -90 48 -3 78 0 97 10 31 16 45 5 30 -22 -19 -34 -19 -55 -3 -87 8 -15 13
-46 11 -67 -2 -21 1 -44 7 -50 10 -14 66 -18 68 -5 5 43 4 74 -2 83 -4 7 3 23
16 36 20 23 21 28 10 61 -14 39 -10 66 9 55 14 -9 30 -12 78 -16 53 -4 53 15
-4 113 -48 85 -70 143 -72 190 -1 14 -4 30 -7 35 -8 12 -4 232 4 260 3 11 10
42 16 69 12 49 72 172 117 236 29 41 94 100 112 100 6 0 12 4 12 8 0 5 21 19
48 32 26 13 59 32 75 43 15 10 27 15 27 11 0 -4 9 1 20 11 28 25 22 53 -15 72
-58 31 -66 34 -75 28 -5 -3 -11 -2 -14 3 -5 9 -96 7 -142 -3 -31 -7 -32 -7
-44 46 -7 30 -17 61 -22 69 -4 8 -17 36 -27 61 -22 52 -37 74 -97 136 -45 46
-71 53 -97 26z m88 -304 c49 -91 40 -273 -18 -351 -31 -42 -44 -41 -71 5 -61
104 -56 299 8 374 30 35 50 28 81 -28z"/>
<path d="M2443 5288 c-24 -6 -43 -15 -43 -19 0 -5 -6 -9 -14 -9 -17 0 -76 -59
-76 -77 0 -8 -7 -25 -16 -38 -18 -28 -27 -138 -13 -166 5 -11 14 -28 20 -40
16 -31 10 -34 -72 -38 -27 -1 -30 -4 -27 -28 2 -22 14 -33 54 -53 l52 -25 -31
-24 c-28 -24 -57 -74 -64 -115 -5 -28 -9 -30 -40 -17 -33 13 -92 21 -110 14
-26 -10 -14 -48 21 -67 41 -22 78 -97 70 -142 -6 -37 -51 -93 -95 -119 -49
-29 -122 -28 -187 2 -48 23 -56 24 -69 10 -17 -17 -8 -41 32 -81 14 -14 25
-32 25 -40 0 -17 42 -32 59 -21 6 3 11 13 11 21 0 10 14 14 58 14 142 1 247
64 285 173 6 17 10 16 49 -7 101 -59 262 -49 382 24 31 19 56 39 56 45 0 6 9
21 20 33 11 12 20 25 20 31 0 5 13 34 29 65 17 31 28 56 25 56 -3 0 0 9 7 21
6 12 12 46 15 77 2 32 4 57 5 57 0 0 2 19 2 43 1 23 -1 42 -4 42 -3 0 -5 10
-4 23 2 27 -25 150 -34 157 -4 3 -13 21 -21 40 -29 72 -74 120 -159 170 -32
18 -160 23 -218 8z m173 -192 c25 -4 104 -72 110 -93 3 -13 10 -23 15 -23 5 0
9 -8 9 -18 0 -10 3 -22 7 -26 10 -9 12 -31 14 -106 1 -82 -8 -132 -36 -195
-29 -64 -54 -90 -140 -150 -63 -44 -75 -49 -125 -49 -82 1 -124 25 -156 90
-21 43 -25 63 -21 99 3 25 13 52 21 60 8 8 16 18 18 23 6 16 73 49 93 47 11
-2 38 -10 60 -19 65 -25 91 -21 104 15 16 45 14 89 -4 94 -8 3 -23 8 -32 12
-10 3 -27 8 -37 10 -37 7 -67 46 -90 115 -6 19 12 78 23 78 4 0 16 9 28 19 29
28 59 31 139 17z"/>
<path d="M3313 5275 c-72 -32 -128 -79 -166 -139 -36 -57 -59 -106 -50 -106 3
0 1 -6 -5 -13 -6 -7 -13 -32 -14 -55 -2 -23 -5 -42 -8 -42 -9 0 1 -157 11
-175 4 -5 5 -20 4 -32 -1 -13 2 -23 6 -23 5 0 6 -7 3 -15 -9 -22 63 -163 104
-204 68 -67 176 -119 242 -114 80 5 132 16 177 39 30 14 56 24 57 23 2 -2 11
-21 21 -43 45 -95 123 -139 261 -145 33 -1 61 -7 62 -12 8 -22 56 -8 89 28 90
94 76 126 -32 77 -63 -29 -116 -33 -165 -11 -45 20 -96 66 -105 96 -10 35 -8
90 4 105 6 7 9 15 6 17 -8 9 40 60 60 63 12 2 21 12 23 24 5 31 -31 42 -82 26
-64 -19 -70 -20 -72 -9 -8 52 -23 83 -60 121 l-44 44 55 26 c44 21 55 31 55
50 0 13 -4 25 -10 25 -5 1 -19 3 -30 4 -11 1 -33 3 -50 4 l-29 1 23 46 c18 35
22 58 20 106 -2 33 -9 67 -15 74 -6 8 -8 14 -4 14 9 0 -19 43 -53 81 -39 44
-80 60 -162 64 -62 3 -84 0 -127 -20z m149 -181 c28 -12 40 -26 53 -61 31 -80
-9 -155 -88 -167 -49 -8 -67 -26 -67 -68 0 -73 35 -87 127 -54 61 23 110 4
153 -59 32 -47 32 -87 1 -167 -16 -42 -80 -88 -126 -90 -56 -2 -158 35 -194
71 -12 12 -21 18 -21 14 0 -3 -20 16 -44 43 -54 60 -78 129 -79 228 0 128 15
186 67 246 33 39 65 61 111 77 35 12 57 9 107 -13z"/>
<path d="M1478 5234 c-2 -1 -15 -4 -28 -6 -37 -5 -94 -43 -124 -83 -39 -51
-56 -108 -56 -191 l0 -73 -68 1 c-38 1 -73 -2 -79 -5 -5 -4 -25 5 -43 18 -42
31 -92 31 -120 -2 -28 -32 -29 -88 -3 -115 28 -27 94 -30 122 -4 23 21 47 15
160 -36 54 -25 215 -121 231 -138 3 -3 34 -27 68 -54 35 -27 94 -77 130 -112
97 -93 133 -84 83 22 l-28 58 24 47 c24 49 74 99 99 99 8 0 14 5 14 10 0 17
35 11 46 -8 14 -22 83 -29 95 -10 18 27 10 78 -16 100 -21 18 -24 28 -19 57
11 67 14 71 54 77 46 8 55 25 45 90 -7 48 -23 62 -67 59 -32 -2 -55 -23 -63
-58 -8 -32 -19 -40 -69 -55 -37 -10 -40 -9 -65 17 -33 36 -60 44 -91 28 -41
-21 -33 -104 12 -119 8 -3 3 -20 -17 -54 -16 -27 -27 -51 -24 -53 2 -1 -16
-14 -41 -27 -60 -31 -110 -31 -161 2 -103 65 -150 166 -125 264 14 53 60 107
98 114 12 3 23 5 23 6 0 1 11 3 25 5 35 4 78 -20 121 -66 31 -33 41 -38 60
-31 65 25 22 162 -64 205 -32 16 -130 31 -139 21z"/>
<path d="M4343 5212 c-28 -15 -104 -102 -90 -102 3 0 2 -13 -3 -29 -6 -23 -4
-34 11 -50 11 -12 22 -21 25 -21 2 0 25 20 50 44 41 41 83 64 109 61 65 -7
116 -47 149 -117 23 -48 19 -152 -6 -175 -10 -9 -18 -22 -18 -29 0 -36 -140
-118 -187 -109 -10 2 -26 4 -35 4 -28 1 -90 62 -110 108 -18 42 -18 43 0 63
27 29 26 75 -1 92 -12 8 -28 13 -34 12 -7 -1 -18 -2 -23 -3 -6 0 -16 -12 -22
-26 -13 -28 -28 -30 -94 -14 -38 10 -44 15 -45 38 -1 51 -17 65 -68 64 -89 -3
-97 -89 -12 -133 34 -17 41 -26 50 -70 11 -50 10 -52 -19 -77 -30 -25 -42 -75
-20 -88 29 -18 60 -14 90 11 l31 26 44 -23 c25 -13 48 -32 51 -41 3 -10 10
-18 15 -18 6 0 17 -16 25 -36 14 -34 17 -71 11 -136 -1 -15 1 -28 6 -28 4 0
13 0 20 0 6 0 46 32 87 71 119 112 348 255 475 295 49 15 55 15 76 0 13 -9 33
-16 44 -16 29 0 87 38 79 52 -4 6 -8 23 -9 37 -1 14 -3 31 -3 37 -3 22 -69 26
-104 7 -46 -24 -208 -27 -208 -3 -1 94 -11 172 -25 199 -22 44 -82 109 -116
127 -39 20 -155 18 -196 -4z"/>
<path d="M3627 4373 c-3 -2 -11 -6 -19 -7 -22 -4 -73 -30 -80 -41 -4 -5 -8 -7
-8 -3 0 4 -12 3 -27 -3 -40 -16 -210 -14 -238 2 -9 6 -52 19 -82 25 -18 3 -36
-23 -29 -41 3 -9 29 -26 58 -39 83 -36 167 -49 260 -42 46 3 90 6 98 6 62 -1
98 -7 120 -19 29 -17 116 -41 148 -41 16 0 22 6 22 23 0 17 -10 28 -39 40 -40
18 -135 100 -126 109 3 3 -2 11 -11 19 -17 14 -40 20 -47 12z"/>
<path d="M2284 4356 c-5 -6 -19 -26 -29 -43 -11 -18 -23 -33 -26 -33 -4 0 -30
-14 -58 -31 -67 -42 -69 -69 -8 -69 24 0 47 3 51 7 17 17 96 40 125 35 17 -2
38 1 45 8 8 6 27 11 43 10 89 -5 224 -3 263 4 64 11 125 46 126 74 1 21 -8 26
-46 24 -16 -1 -55 -9 -55 -12 0 -8 -141 -27 -182 -24 -36 3 -120 25 -173 47
-38 15 -64 16 -76 3z"/>
<path d="M1895 4136 c-13 -31 -14 -41 -3 -64 15 -31 35 -34 198 -31 16 0 214
-1 240 -1 172 -3 1682 -2 1700 2 20 4 26 12 28 41 2 20 -1 45 -7 54 -9 17 -66
18 -1038 19 -565 1 -1045 5 -1065 9 -37 7 -38 6 -53 -29z"/>
<path d="M1218 3952 c-42 -5 -56 -28 -62 -100 -4 -50 46 -92 98 -83 5 1 787 2
1739 2 1915 0 1780 -5 1793 64 9 48 -2 82 -33 102 -24 16 -139 17 -1767 18
-957 0 -1753 -1 -1768 -3z"/>
<path d="M4146 3673 c-1 -2 -204 -3 -450 -3 -507 -1 -486 3 -478 -77 4 -46 21
-57 99 -68 56 -8 130 -51 155 -89 26 -41 20 -108 -17 -180 -22 -43 -26 -62
-20 -88 4 -18 10 -105 14 -192 6 -159 6 -159 30 -161 13 -1 32 6 41 15 10 10
21 19 26 21 8 4 134 93 208 149 19 14 69 50 113 82 44 31 87 63 96 72 8 9 18
16 21 16 5 0 28 17 60 45 32 28 86 65 95 65 6 0 11 4 11 8 0 4 28 28 63 52 34
24 64 47 65 52 2 4 7 8 12 8 5 0 39 18 77 40 64 37 174 78 249 94 49 11 64 56
39 119 -4 9 -17 17 -29 18 -46 2 -478 4 -480 2z"/>
<path d="M1302 3661 c-7 -4 -14 -14 -16 -22 -1 -8 -6 -25 -10 -37 -10 -31 26
-72 64 -72 15 0 30 -3 34 -7 4 -5 11 -8 14 -9 4 0 27 -6 52 -14 25 -7 48 -13
53 -12 4 1 7 -2 7 -8 0 -5 6 -10 13 -10 6 0 33 -20 59 -43 46 -43 49 -49 66
-152 10 -61 8 -2241 -2 -2310 -4 -33 -9 -66 -9 -72 0 -7 -3 -13 -7 -13 -4 0
-7 -6 -7 -13 0 -27 -48 -78 -93 -99 -90 -42 -76 -37 -178 -57 -55 -11 -64 -20
-68 -68 -7 -78 -50 -73 622 -71 l599 3 3 50 c1 28 -2 56 -7 63 -4 8 -37 20
-72 28 -35 8 -72 16 -83 19 -29 7 -92 41 -120 66 -32 28 -65 105 -73 172 -8
62 -7 2258 1 2302 20 118 49 159 138 202 34 17 94 38 132 46 38 9 73 22 78 29
4 7 7 33 6 57 -3 40 -6 46 -31 52 -39 10 -1149 10 -1165 0z"/>
<path d="M2378 3176 c-21 -11 -24 -20 -32 -81 -3 -16 -5 -31 -5 -32 -3 -6 -2
-386 1 -388 2 -2 1 -110 -2 -240 -3 -130 -3 -238 0 -240 3 -2 3 -110 0 -240
-3 -130 -3 -238 0 -240 3 -2 3 -110 0 -240 -3 -130 -2 -239 3 -242 4 -2 4 -9
1 -15 -7 -10 -7 -59 -1 -235 3 -97 18 -123 70 -117 17 2 37 10 44 17 11 11 13
232 13 1147 0 1068 -1 1135 -18 1144 -24 14 -49 14 -74 2z"/>
<path d="M2654 3180 c-14 -6 -25 -23 -32 -53 -13 -50 -16 -2167 -3 -2214 4
-15 15 -28 26 -30 57 -9 73 -9 90 3 17 13 18 64 18 1126 1 1210 3 1168 -53
1173 -14 2 -34 -1 -46 -5z"/>
<path d="M2900 3162 c-10 -13 -17 -32 -15 -42 2 -11 -1 -22 -6 -25 -5 -4 -6
-11 -3 -17 11 -17 11 -88 1 -88 -6 0 -6 -5 0 -12 11 -16 11 -618 0 -635 -5 -7
-5 -13 0 -13 10 0 10 -211 -1 -228 -4 -7 -4 -12 1 -12 4 0 8 -162 8 -360 0
-198 -4 -360 -8 -360 -5 0 -5 -5 -1 -12 11 -17 11 -168 1 -168 -5 0 -5 -6 -1
-12 12 -19 11 -108 -1 -108 -7 0 -7 -3 0 -8 6 -4 11 -43 12 -86 1 -70 4 -82
25 -98 39 -30 116 -11 117 30 5 125 5 2200 0 2207 -4 6 -7 12 -7 15 1 3 -2 15
-6 27 -13 40 -86 43 -116 5z"/>
<path d="M3153 3175 c-9 -7 -17 -23 -19 -36 -1 -13 -3 -24 -5 -24 -1 0 -2
-499 -3 -1108 l-2 -1109 25 -19 c16 -13 35 -18 58 -16 71 8 66 -86 65 1144 -1
609 -2 1115 -2 1123 -2 45 -77 74 -117 45z"/>
<path d="M3474 1608 c-5 -7 -7 -169 -5 -360 2 -319 4 -350 22 -385 46 -89 13
-136 -108 -157 -41 -8 -79 -20 -84 -27 -13 -20 -11 -83 3 -97 17 -17 1359 -17
1376 0 7 7 12 33 12 59 l0 46 -47 13 c-209 55 -282 90 -408 195 -55 46 -266
256 -536 534 -103 105 -193 191 -202 191 -9 0 -19 -6 -23 -12z"/>
<path d="M1215 461 c-31 -9 -65 -34 -65 -48 0 -36 -199 -168 -270 -179 -14 -3
-36 -9 -50 -14 -14 -6 -50 -12 -81 -14 -31 -2 -62 -6 -68 -10 -12 -8 -16 -142
-5 -170 6 -14 223 -16 2304 -16 1427 0 2308 4 2324 10 24 9 25 13 25 89 0 90
7 84 -99 100 -95 15 -159 36 -231 77 -75 41 -115 75 -149 126 -14 21 -31 40
-39 43 -7 3 -342 5 -745 4 -402 -1 -758 -1 -791 -1 -33 0 -150 1 -260 2 -110
0 -553 1 -984 1 -431 -1 -786 1 -790 3 -3 1 -15 0 -26 -3z"/>
</g>
</svg>
